<svg xmlns="http://www.w3.org/2000/svg" xml:space="preserve" id="diet-chart" x="0" y="0" enable-background="new 0 0 80 80" version="1.1" viewBox="0 0 80 80">
  <g>
    <g>
      <g>
        <g>
          <path fill="#cacaca" d="M56.33,16.53v51.49c0,2.72-2.21,4.93-4.93,4.93H11.27c-2.73,0-4.94-2.21-4.94-4.94V16.53
					c0-2.73,2.21-4.94,4.94-4.94h40.12C54.12,11.59,56.33,13.8,56.33,16.53z"></path>
        </g>
        <g>
          <g>
            <path d="M32.84,72.64c19.67-0.1,20.49,0.61,22.33-2.1c0.97-1.47,0.76-1.47,0.74-13.43C55.88,13.55,56.33,15.77,55.17,14
						c-2.65-3.91-8.75-1.03-43.51-2.37c-0.99-0.06,0.13-0.09,1.12-0.13c43.08-0.82,41.22-0.63,43.06,2.06
						c1.32,1.91,0.95,0.42,0.93,43.55c-0.02,11.67,0.23,12.21-0.93,13.88c-2.15,3.15-3.54,2.37-23,2.27
						C4.35,73.01,3.82,72.9,32.84,72.64z"></path>
          </g>
        </g>
        <g>
          <path fill="#fff" d="M52.08,17.55V67c0,0.94-0.76,1.7-1.7,1.7H12.29c-0.94,0-1.7-0.76-1.7-1.7V17.55c0-0.94,0.76-1.7,1.7-1.7
					h38.09C51.32,15.85,52.08,16.61,52.08,17.55z"></path>
        </g>
        <g>
          <g>
            <g>
              <circle cx="18.96" cy="50.33" r="4.5" fill="#4343ff"></circle>
            </g>
            <g>
              <g>
                <path d="M22.3,53.34c-0.16-0.12,1.42-1.86,0.55-4.31c-0.92-2.58-4.06-3.62-6.4-2.05c-1.1,0.75-1.46,1.59-1.59,1.52
								c-0.09-0.01,0.06-1,1.22-2.01c2.48-2.11,6.55-0.96,7.53,2.29C24.44,51.55,22.45,53.58,22.3,53.34z"></path>
              </g>
            </g>
            <g>
              <g>
                <polygon fill="#fff" points="16.35 51.03 17.42 49.96 18.16 50.7 20.62 48.24 21.58 49.2 18.05 52.73"></polygon>
              </g>
            </g>
          </g>
          <g>
            <g>
              <path d="M46.49,48.24c0,0.24-4.37,0.47-9.77,0.51c-12.96,0.1-13.1-0.77-0.01-0.87C42.12,47.84,46.49,48,46.49,48.24z"></path>
            </g>
          </g>
          <g>
            <g>
              <path d="M33.37,51.5c-8.51,0.05-8.6-0.82,0-0.87C41.87,50.58,41.96,51.45,33.37,51.5z"></path>
            </g>
          </g>
          <g>
            <g>
              <circle cx="18.96" cy="61.48" r="4.5" fill="#4343ff"></circle>
            </g>
            <g>
              <g>
                <path d="M22.3,64.49c-0.16-0.12,1.42-1.86,0.55-4.31c-0.92-2.61-4.08-3.61-6.4-2.05c-1.1,0.75-1.46,1.59-1.59,1.52
								c-0.09-0.01,0.06-1,1.22-2.01c2.47-2.09,6.55-0.98,7.53,2.29C24.44,62.7,22.45,64.73,22.3,64.49z"></path>
              </g>
            </g>
            <g>
              <g>
                <polygon fill="#fff" points="16.35 62.18 17.42 61.11 18.16 61.85 20.62 59.39 21.58 60.35 18.05 63.88"></polygon>
              </g>
            </g>
          </g>
          <g>
            <g>
              <path d="M36.73,59.9c-12.96,0.1-13.1-0.77-0.01-0.87C49.68,58.93,49.82,59.8,36.73,59.9z"></path>
            </g>
          </g>
          <g>
            <g>
              <path d="M36.09,62.2c0,0.57-9.14,0.62-9.14,0.05C26.95,61.68,36.09,61.62,36.09,62.2z"></path>
            </g>
          </g>
        </g>
        <g>
          <g>
            <path d="M50.38,15.85c0,0.03-0.46,0.06-1.33,0.09c-0.87,0.02-2.16,0.05-3.82,0.08c-13.18,0.13-15.25,0.17-31.95,0.22
						c-2.98,0.11-2.3-0.79-2.27,12.84c0.01,10.41,0.02,19.9-0.02,35.72c-0.01,4.59-2.46,3.48,20.21,3.6
						c25.46,0.25,25.69,0.36,0,0.61c-2.96,0.02-6.21,0.03-9.69,0.05c-12.71,0.05-11.32,1.45-11.34-7.31
						c-0.03-16.16-0.02-22.2-0.01-32.67c0.03-14.98-1.32-13.63,5.95-13.61c1.86,0.01,3.66,0.01,5.4,0.02
						c12.2,0.07,6.88,0.03,23.73,0.19c1.66,0.04,2.94,0.06,3.82,0.08C49.92,15.79,50.38,15.82,50.38,15.85z"></path>
          </g>
        </g>
        <g>
          <path fill="#4343ff" d="M44.71,11.32v4.77c0,0.94-0.76,1.7-1.7,1.7H19.65c-0.94,0-1.7-0.76-1.7-1.7v-4.77
					c0-3.87,8.34,0.39,9.6-3.13c1.33-3.72,6.65-3.74,7.98,0c0.3,0.83,1.03,1.43,1.91,1.43l5.57,0
					C43.95,9.62,44.71,10.38,44.71,11.32z"></path>
        </g>
        <g>
          <g>
            <path d="M44.71,16.09c-0.22,0-0.28-4.8-0.38-5.1c-0.7-2.71-7.95,1.2-9.26-2.78c-1.25-3.18-5.9-3.38-7.34,0.17
						c-0.63,1.39-2.18,1.41-2.09,1.23c-0.01-0.08,0.43-0.06,0.96-0.46c0.88-0.68,0.54-1.38,1.55-2.56c0.86-1.06,2.58-1.9,4.43-1.49
						c3,0.64,3.12,3.13,3.97,3.78c1.22,0.87,6.41-0.32,7.76,0.84c0.91,0.78,0.7,1.72,0.71,2.2C44.94,14.5,44.83,16.09,44.71,16.09z"></path>
          </g>
        </g>
        <g>
          <path fill="#fff" d="M31.54,10.5c-2.26,0-2.26-3.42,0-3.42C33.8,7.08,33.8,10.5,31.54,10.5z"></path>
        </g>
      </g>
      <g>
        <path fill="#ff3b13" d="M73.11,65.18c-2.23,7.97-9.88,11.67-15.35,8.31c-5.51,3.38-13.15-0.41-15.35-8.31
				c-3.15-11.23,7.06-19.53,15.35-12.57C66.11,45.62,76.23,54,73.11,65.18z"></path>
      </g>
      <g>
        <g>
          <path d="M66.58,50.4c-0.05,0.27-4.11-1.44-8.62,2.46c-0.12,0.1-0.28,0.1-0.4,0.01l-0.01-0.01c-1-0.8-2.21-1.54-3.62-1.98
					c-11.15-3.49-16.4,14.08-6.09,21.66c5.59,3.93,9.72,0.63,10,0.81c1.23,0.79,2.05,0.99,2.02,1.06c-0.03,0.11-1.27-0.25-2.2-0.78
					h0.18c-7.68,5.22-18.64-4.67-16.07-15.64c1.9-8.02,10-10.9,16.19-5.62l-0.41,0C61.95,48.77,66.65,50.18,66.58,50.4z"></path>
        </g>
      </g>
      <g>
        <path fill="#4343ff" d="M64.58,53.59c-2.38-1.01-4.26-3.22-5.08-6.36c5.66-3.2,11.56-0.69,13.19,5.61
				C69.86,54.43,66.97,54.6,64.58,53.59z"></path>
      </g>
      <g>
        <g>
          <path d="M72.69,52.83c-0.14,0.04-0.42-0.87-1.14-2.17c-4.39-7.63-11.85-3.07-12.04-3.44c-0.05-0.07,0.7-0.71,2.18-1.27
					c4.1-1.5,8.6,0.31,10.41,4.42C72.71,51.84,72.77,52.82,72.69,52.83z"></path>
        </g>
      </g>
      <g>
        <g>
          <path d="M64.68,49.83c-7.13-2.93-6.79-3.73,0.33-0.8C72.14,51.96,71.8,52.75,64.68,49.83z"></path>
        </g>
      </g>
      <g>
        <g>
          <path d="M63.87,40.5c0.36,0.3-4.45,5.01-5.81,12.44c-0.29,1.44-0.33,2.35-0.45,2.36c-0.12,0.01-0.29-0.93-0.15-2.44
					C57.96,46.11,63.59,40.12,63.87,40.5z"></path>
        </g>
      </g>
      <g>
        <g>
          <path d="M53.39,53.82c0.15-0.2,1.63,0.9,3.73,0.94c2.11,0.06,3.64-0.97,3.77-0.76c0.07,0.09-0.22,0.48-0.88,0.88
					c-0.65,0.4-1.71,0.78-2.91,0.75c-1.2-0.03-2.24-0.45-2.87-0.89C53.59,54.31,53.32,53.9,53.39,53.82z"></path>
        </g>
      </g>
      <g>
        <g>
          <path d="M68.14,48.63C68.09,48.87,67.57,49,67,49.32c-0.59,0.31-1.11,0.62-1.29,0.46c-0.36-0.29,0.83-1.65,1.99-1.45
					C67.99,48.38,68.15,48.52,68.14,48.63z"></path>
        </g>
      </g>
      <g>
        <g>
          <path d="M63.7,51.51c-0.09,0.07-0.29,0.01-0.48-0.23c-0.77-0.9-0.2-2.61,0.22-2.45c0.23,0.08,0.23,0.68,0.26,1.35
					C63.73,50.83,63.89,51.34,63.7,51.51z"></path>
        </g>
      </g>
    </g>
    <g>
      <g>
        <g>
          <g>
            <path fill="#cacaca" d="M34.76,44.13c-0.07,0.01-0.11,0.03-0.17,0.04c-6.24,1.67-12.68-1.98-14.46-8.23
						c-1.76-6.28,1.9-12.83,8.19-14.62h0.01c6.19-1.75,12.64,1.79,14.51,7.91v0.01C44.94,34.14,41.91,42.11,34.76,44.13z"></path>
          </g>
          <g>
            <path fill="#4343ff" d="M34.76,44.12c-0.06,0.02-0.11,0.03-0.16,0.04l-3.13-11.71l11.38-3.2C44.94,33.94,42.05,42.07,34.76,44.12z
						"></path>
          </g>
          <g>
            <path fill="#ff3b13" d="M42.85,29.23v0.01l-11.37,3.2l-3.15-11.12h0.01C34.53,19.58,40.98,23.11,42.85,29.23z"></path>
          </g>
          <g>
            <path fill="#fff" d="M32.96,37.74c-2.77,0.78-5.65-0.83-6.43-3.6c-0.78-2.77,0.83-5.65,3.6-6.43c2.73-0.77,5.56,0.79,6.39,3.48
						C37.41,33.46,36.05,36.87,32.96,37.74z"></path>
          </g>
          <g>
            <g>
              <path d="M26.53,34.14c0.07-0.02,0.19,0.31,0.5,0.82c3.1,5.25,10.69,1.76,9.12-3.62l-0.01-0.03c-0.32-1.04-0.93-1.9-1.65-2.46
							c-2.02-1.65-4.32-0.97-4.35-1.14c-0.26-0.41,5.19-1.47,6.78,3.36l-0.01-0.03c1.7,5.18-4.32,9.33-8.5,6.22
							c-0.94-0.72-1.45-1.55-1.68-2.15C26.49,34.51,26.49,34.15,26.53,34.14z"></path>
            </g>
          </g>
        </g>
        <g>
          <g>
            <path d="M34.76,44.13c-0.08-0.18,2.09-0.59,4.51-2.85c1.2-1.11,2.37-2.73,3.06-4.77c1.35-4.21,0.07-6.92,0.07-7.27l0.02,0.13
						c-1.36-4.37-5.15-7.31-8.85-7.98c-3.2-0.62-5.22,0.14-5.24-0.05c-0.01-0.05,0.46-0.25,1.38-0.46
						c5.51-1.21,11.67,2.2,13.55,8.24c0.03,0.1,0.02,0.04,0.02,0.14l-0.03-0.17c0.04,0.1,0.1,0.31,0.11,0.32
						c1.72,6.36-1.81,12.54-7.15,14.39C35.3,44.1,34.78,44.17,34.76,44.13z"></path>
          </g>
        </g>
      </g>
      <g>
        <g>
          <path d="M42.41,21.3c-1.6-0.02-1.24,0.44-4.41,3.61c-1.9,1.9-2.11,1.72-0.46-0.41c3.13-4.04,3.31-4.04,4.87-4.05
					C49.52,20.59,49.97,21.15,42.41,21.3z"></path>
        </g>
      </g>
      <g>
        <g>
          <ellipse cx="45.97" cy="22.8" rx="1.94" ry=".43"></ellipse>
        </g>
      </g>
      <g>
        <g>
          <path d="M45.38,24.7c0-0.24,0.57-0.43,1.26-0.43c0.7,0,1.26,0.19,1.26,0.43c0,0.24-0.57,0.43-1.26,0.43
					C45.95,25.13,45.38,24.93,45.38,24.7z"></path>
        </g>
      </g>
    </g>
  </g>
</svg>
